<svg width="60" height="60" viewBox="0 0 60 60" fill="none" xmlns="http://www.w3.org/2000/svg">
<circle cx="30" cy="30" r="30" fill="#026C3D"/>
<g clip-path="url(#clip0_45_74)">
<path d="M18 41.9998C17.8688 42.0032 17.7387 41.9758 17.62 41.9198C17.4374 41.8448 17.2811 41.7174 17.1707 41.5537C17.0604 41.3899 17.001 41.1972 17 40.9998V22.7798C17.0143 22.1376 17.155 21.5045 17.414 20.9167C17.673 20.3288 18.0453 19.7978 18.5097 19.3539C18.974 18.91 19.5212 18.5619 20.1201 18.3296C20.719 18.0973 21.3578 17.9852 22 17.9998H38C38.6422 17.9852 39.281 18.0973 39.8799 18.3296C40.4788 18.5619 41.026 18.91 41.4903 19.3539C41.9547 19.7978 42.327 20.3288 42.586 20.9167C42.845 21.5045 42.9857 22.1376 43 22.7798V32.2198C42.9857 32.862 42.845 33.4951 42.586 34.0829C42.327 34.6708 41.9547 35.2018 41.4903 35.6457C41.026 36.0896 40.4788 36.4377 39.8799 36.67C39.281 36.9023 38.6422 37.0144 38 36.9998H23.41L18.71 41.7098C18.6166 41.8025 18.5057 41.8758 18.3839 41.9256C18.2621 41.9753 18.1316 42.0006 18 41.9998ZM22 19.9998C21.2341 19.9727 20.4886 20.25 19.9265 20.7709C19.3643 21.2918 19.0312 22.014 19 22.7798V38.5898L22.29 35.2898C22.3834 35.1971 22.4943 35.1238 22.6161 35.074C22.7379 35.0243 22.8684 34.999 23 34.9998H38C38.7659 35.0269 39.5114 34.7496 40.0735 34.2287C40.6357 33.7078 40.9688 32.9856 41 32.2198V22.7798C40.9688 22.014 40.6357 21.2918 40.0735 20.7709C39.5114 20.25 38.7659 19.9727 38 19.9998H22Z" fill="#ECECEC"/>
<path d="M30 29C30.8284 29 31.5 28.3284 31.5 27.5C31.5 26.6716 30.8284 26 30 26C29.1716 26 28.5 26.6716 28.5 27.5C28.5 28.3284 29.1716 29 30 29Z" fill="#ECECEC"/>
<path d="M35.5 29C36.3284 29 37 28.3284 37 27.5C37 26.6716 36.3284 26 35.5 26C34.6716 26 34 26.6716 34 27.5C34 28.3284 34.6716 29 35.5 29Z" fill="#ECECEC"/>
<path d="M24.5 29C25.3284 29 26 28.3284 26 27.5C26 26.6716 25.3284 26 24.5 26C23.6716 26 23 26.6716 23 27.5C23 28.3284 23.6716 29 24.5 29Z" fill="#ECECEC"/>
</g>
<defs>
<clipPath id="clip0_45_74">
<rect width="32" height="32" fill="white" transform="translate(14 14)"/>
</clipPath>
</defs>
</svg>
