<svg width="71" height="44" viewBox="0 0 71 44" fill="none" xmlns="http://www.w3.org/2000/svg">
<path d="M2.58239 35V8.81818H12.4006C14.4119 8.81818 16.0994 9.19318 17.4631 9.94318C18.8352 10.6932 19.8707 11.7244 20.5696 13.0369C21.277 14.3409 21.6307 15.8239 21.6307 17.4858C21.6307 19.1648 21.277 20.6562 20.5696 21.9602C19.8622 23.2642 18.8182 24.2912 17.4375 25.0412C16.0568 25.7827 14.3565 26.1534 12.3366 26.1534H5.82955V22.2543H11.6974C12.8736 22.2543 13.8366 22.0497 14.5866 21.6406C15.3366 21.2315 15.8906 20.669 16.2486 19.9531C16.6151 19.2372 16.7983 18.4148 16.7983 17.4858C16.7983 16.5568 16.6151 15.7386 16.2486 15.0312C15.8906 14.3239 15.3324 13.7741 14.5739 13.3821C13.8239 12.9815 12.8565 12.7812 11.6719 12.7812H7.32528V35H2.58239ZM27.5504 35V8.81818H32.2933V31.0241H43.8245V35H27.5504ZM49.741 35V8.81818H59.5592C61.5705 8.81818 63.258 9.19318 64.6217 9.94318C65.9938 10.6932 67.0293 11.7244 67.7282 13.0369C68.4356 14.3409 68.7893 15.8239 68.7893 17.4858C68.7893 19.1648 68.4356 20.6562 67.7282 21.9602C67.0208 23.2642 65.9768 24.2912 64.5961 25.0412C63.2154 25.7827 61.5151 26.1534 59.4952 26.1534H52.9881V22.2543H58.856C60.0322 22.2543 60.9952 22.0497 61.7452 21.6406C62.4952 21.2315 63.0492 20.669 63.4072 19.9531C63.7736 19.2372 63.9569 18.4148 63.9569 17.4858C63.9569 16.5568 63.7736 15.7386 63.4072 15.0312C63.0492 14.3239 62.491 13.7741 61.7325 13.3821C60.9825 12.9815 60.0151 12.7812 58.8305 12.7812H54.4839V35H49.741Z" fill="white"/>
<path d="M27 38C27 37.4477 27.4477 37 28 37H69C69 38.1046 68.1046 39 67 39H28C27.4477 39 27 38.5523 27 38Z" fill="white"/>
<path d="M2 5C2 4.44772 2.44772 4 3 4H42V6H3C2.44771 6 2 5.55228 2 5Z" fill="white"/>
<path d="M67 39V29C67 28.4477 67.4477 28 68 28C68.5523 28 69 28.4477 69 29V37C69 38.1046 68.1046 39 67 39Z" fill="white"/>
<path d="M43 15C42.4477 15 42 14.5523 42 14V4C43.1046 4 44 4.89543 44 6V14C44 14.5523 43.5523 15 43 15Z" fill="white"/>
</svg>
